<svg aria-hidden="true" style="width:0;height:0;position:absolute;overflow:hidden" xmlns="http://www.w3.org/2000/svg"><defs><symbol id="icon-user" viewBox="0 0 32 32"><path d="M32 16c0 8.837-7.163 16-16 16S0 24.837 0 16 7.163 0 16 0s16 7.163 16 16z"/><path d="M10.523 22.847a5.477 5.477 0 1 1 10.954 0H10.522zM16 16.685c-2.27 0-4.108-1.838-4.108-4.108S13.73 8.469 16 8.469c2.27 0 4.108 1.838 4.108 4.108S18.27 16.685 16 16.685z"/></symbol><symbol id="icon-Logotype" viewBox="0 0 32 32"><path d="M31.229 9.194a15.221 15.221 0 0 0-2.138-.91v17.947A14.622 14.622 0 0 0 24 25.306c-2.764 0-5.498.806-8 2.357V9.612c-2.356-1.387-5.076-2.208-8-2.208-2.604 0-5.062.656-7.229 1.79-.48.239-.771.761-.771 1.313v18.021c0 .865.684 1.477 1.455 1.477.233 0 .465-.06.698-.179 1.76-.94 3.738-1.537 5.847-1.537 3.011 0 5.789 1.223 8 2.984 2.211-1.76 4.989-2.984 8-2.984 2.109 0 4.087.597 5.847 1.552.233.119.465.179.698.179.756 0 1.455-.612 1.455-1.477V10.507c0-.552-.291-1.074-.771-1.313zM13.091 26.23c-1.658-.612-3.36-.925-5.091-.925s-3.433.313-5.091.925V11.446a12.672 12.672 0 0 1 10.182.015V26.23zM26.182 2.182l-7.273 7.459v14.172l7.273-6.713V2.182z"/></symbol><symbol id="icon-up" viewBox="0 0 32 32"><path fill="#4f2ee8" style="fill:var(--color1,#4f2ee8)" opacity=".3" d="M32 16c0 8.837-7.163 16-16 16S0 24.837 0 16 7.163 0 16 0s16 7.163 16 16z"/><path fill="#4f2ee8" style="fill:var(--color1,#4f2ee8)" d="M29.5 16c0 7.456-6.044 13.5-13.5 13.5S2.5 23.456 2.5 16 8.544 2.5 16 2.5 29.5 8.544 29.5 16z"/><path fill="#fff" style="fill:var(--color2,#fff)" d="m11.687 17.35 4.2-4.213c.05-.05.104-.085.162-.106s.121-.031.188-.031.129.011.188.031.113.056.163.106L20.8 17.35c.117.117.175.262.175.438s-.063.325-.188.45a.6.6 0 0 1-.876 0l-3.675-3.675-3.675 3.675c-.117.117-.26.175-.431.175s-.319-.063-.444-.188a.6.6 0 0 1 0-.876z"/></symbol><symbol id="icon-arrow-narrow-right" viewBox="0 0 32 32"><path stroke-linejoin="round" stroke-linecap="round" stroke-width="3.2" d="M5.333 16h21.333m.001 0-8-8m8 8-8 8"/></symbol><symbol id="icon-dump" viewBox="0 0 32 32"><path d="M32 16c0 8.837-7.163 16-16 16S0 24.837 0 16 7.163 0 16 0s16 7.163 16 16z"/><path stroke-linejoin="round" stroke-linecap="round" stroke-width="1.684" d="M13.684 9.053h4.632m-9.263 2.315h13.895m-1.544 0-.541 8.12c-.081 1.218-.122 1.827-.385 2.289a2.322 2.322 0 0 1-1.002.938c-.478.232-1.089.232-2.31.232h-2.33c-1.221 0-1.832 0-2.31-.232a2.31 2.31 0 0 1-1.002-.938c-.263-.462-.304-1.071-.385-2.289l-.541-8.12m3.858 3.474v3.86m3.088-3.86v3.86"/></symbol><symbol id="icon-x-close" viewBox="0 0 32 32"><path d="m26.667 7.303-1.97-1.97-7.808 7.808-7.808-7.808-1.97 1.97 7.808 7.808-7.808 7.808 1.97 1.97 7.808-7.808 7.808 7.808 1.97-1.97-7.808-7.808 7.808-7.808z"/></symbol><symbol id="icon-Switcher-3" viewBox="0 0 32 32"><path d="M0 14.909a7.273 7.273 0 0 1 7.273-7.273h14.545a7.273 7.273 0 1 1 0 14.546H7.273A7.273 7.273 0 0 1 0 14.909z"/><path d="M21.818 21.455a6.545 6.545 0 1 0 0-13.09 6.545 6.545 0 0 0 0 13.09z"/></symbol><symbol id="icon-Switcher-2" viewBox="0 0 32 32"><path d="M1.524 14.857a7.619 7.619 0 0 1 7.619-7.619h15.238a7.619 7.619 0 1 1 0 15.238H9.143a7.619 7.619 0 0 1-7.619-7.619z"/><path d="M9.143 21.714A6.857 6.857 0 1 0 9.143 8a6.857 6.857 0 0 0 0 13.714z"/></symbol><symbol id="icon-align-left" viewBox="0 0 32 32"><path stroke-linejoin="round" stroke-linecap="round" stroke-width="2.286" d="M22.667 13.333H4M28 8H4M28 18.667H4M22.667 24H4"/></symbol><symbol id="icon-mail-02" viewBox="0 0 32 32"><path stroke-linejoin="round" stroke-linecap="round" stroke-width="2.286" d="m28.666 24-8.857-8m-7.619 0-8.857 8M2.667 9.333l10.887 7.621c.882.617 1.322.926 1.802 1.045.423.106.866.106 1.29 0 .479-.12.92-.428 1.802-1.045l10.887-7.621M9.067 26.667h13.867c2.24 0 3.36 0 4.216-.436a3.996 3.996 0 0 0 1.748-1.748c.436-.856.436-1.976.436-4.216v-8.533c0-2.24 0-3.36-.436-4.216A3.991 3.991 0 0 0 27.15 5.77c-.856-.436-1.976-.436-4.216-.436H9.067c-2.24 0-3.36 0-4.216.436a3.991 3.991 0 0 0-1.748 1.748c-.436.856-.436 1.976-.436 4.216v8.533c0 2.24 0 3.36.436 4.216a3.996 3.996 0 0 0 1.748 1.748c.856.436 1.976.436 4.216.436z"/></symbol><symbol id="icon-lock-02" viewBox="0 0 32 32"><path stroke-linejoin="round" stroke-linecap="round" stroke-width="2.286" d="M22.667 14.667v-4a6.667 6.667 0 0 0-13.334 0v4M10.4 28h11.2c2.24 0 3.36 0 4.216-.436a3.991 3.991 0 0 0 1.748-1.748C28 24.96 28 23.84 28 21.6v-.533c0-2.24 0-3.36-.436-4.216a3.991 3.991 0 0 0-1.748-1.748c-.856-.436-1.976-.436-4.216-.436H10.4c-2.24 0-3.36 0-4.216.436a3.996 3.996 0 0 0-1.748 1.748C4 17.707 4 18.827 4 21.067v.533c0 2.24 0 3.36.436 4.216a3.991 3.991 0 0 0 1.748 1.748C7.04 28 8.16 28 10.4 28z"/></symbol><symbol id="icon-x-close" viewBox="0 0 32 32"><path stroke-linejoin="round" stroke-linecap="round" stroke-width="3.429" d="M24 8 8 24M8 8l16 16"/></symbol><symbol id="icon-slider" viewBox="0 0 32 32"><path d="M15.408 17.167a.833.833 0 0 0 1.184 0l3.816-3.825a.834.834 0 1 1 1.184 1.175l-3.825 3.825c-.452.452-1.077.731-1.767.731s-1.315-.279-1.767-.732l-3.825-3.825a.833.833 0 1 1 1.184-1.176l3.816 3.825z"/></symbol><symbol id="icon-trident" viewBox="0 0 20 32"><path d="M9.005 30.888A8.656 8.656 0 0 1 5.6 25.592l-.009-.055H0V2.42c2.991 1.443 5.153 4.6 5.388 7.876l.845 6.493-.407-.045c-.893 0-1.676.812-1.676 1.608 0 .752.595 1.383 1.379 1.548l1.018.226c1.675-3.051 2.63-6.042 2.63-8.973 0-2.646-.36-5.291-.422-7.997 0-1.202.485-2.3 1.253-3.156.783.857 1.253 1.954 1.253 3.156 0 2.706-.423 5.351-.423 7.997 0 2.93.955 5.922 2.631 8.973l1.018-.226c.783-.165 1.378-.811 1.378-1.548 0-.811-.783-1.608-1.675-1.608l-.423.06.845-6.493C15.035 7.034 17.01 3.863 20 2.435v23.117h-5.576c-.422 2.18-1.613 4.148-3.414 5.35-.423.286-.783.632-1.018 1.098-.22-.466-.58-.812-.987-1.112zM2.647 17.556c.235-.857.893-1.609 1.738-2.075l-.658-5.35a8.283 8.283 0 0 0-2.043-4.382l.007.008V17.54h.956v.015zm2.819 6.373c0-.812.125-1.548.298-2.3l-.784-.18c-1.143-.346-2.036-1.203-2.333-2.3H1.69v4.78h3.775zm3.712 0c0-.977-.783-1.834-1.801-1.954-.173.63-.298 1.262-.298 1.954h2.099zm0 1.623H7.314c.298 1.262.955 2.42 1.864 3.397v-3.397zm2.63-5.005c-.72-1.263-1.377-2.585-1.8-3.968-.423 1.383-1.08 2.705-1.801 3.968.72.165 1.315.631 1.8 1.157.486-.526 1.082-.992 1.802-1.157zm1.144 3.382c0-.692-.125-1.323-.297-1.954-1.018.12-1.801.977-1.801 1.954h2.098zm-.235 1.623h-1.863v3.397c.908-.992 1.566-2.135 1.863-3.397zm5.623-1.623v-4.78h-.956c-.297 1.097-1.206 1.954-2.333 2.3l-.783.18c.172.752.297 1.488.297 2.3h3.775zm0-6.373v-11.8c-1.08 1.203-1.864 2.706-2.036 4.375l-.658 5.35c.846.466 1.504 1.203 1.738 2.075h.956z"/></symbol><symbol id="icon-logo" viewBox="0 0 32 32"><path fill="#f6f6f6" style="fill:var(--color1,#f6f6f6)" d="m0 0 16.343 16.171L32 32V0H0z"/><path fill="#f6f6f6" style="fill:var(--color1,#f6f6f6)" d="M4.457 4.229 16.4 16.058l11.257 11.486h-23.2V4.23z"/><path fill="#4f2ee8" style="fill:var(--color2,#4f2ee8)" d="M27.733 27.618 15.79 15.789 4.533 4.303h23.2v23.314z"/><path fill="#4f2ee8" style="fill:var(--color2,#4f2ee8)" d="m9.257 9.029 13.6 13.6h-13.6v-13.6z"/><path fill="#f6f6f6" style="fill:var(--color1,#f6f6f6)" d="m9.257 9.029 13.6 13.6v-13.6h-13.6z"/></symbol><symbol id="icon-shopping-cart" viewBox="0 0 32 32"><path d="M25.334 9.333h-4V8a5.332 5.332 0 1 0-10.666 0v1.333h-4a1.335 1.335 0 0 0-1.334 1.334v14.667a4.003 4.003 0 0 0 4 4h13.333a4.003 4.003 0 0 0 4-4V10.667a1.335 1.335 0 0 0-1.334-1.334zM13.334 8a2.668 2.668 0 0 1 5.334 0v1.333h-5.333V8zM24 25.333a1.335 1.335 0 0 1-1.334 1.334H9.333a1.335 1.335 0 0 1-1.334-1.334V12h2.667v1.333a1.335 1.335 0 0 0 2.277.943c.25-.251.39-.589.39-.943V12h5.333v1.333a1.335 1.335 0 0 0 2.277.943c.25-.251.391-.589.391-.943V12h2.667v13.333z"/></symbol><symbol id="icon-dump2" viewBox="0 0 32 32"><path fill="#4f2ee8" style="fill:var(--color1,#4f2ee8)" d="M32 16c0 8.837-7.163 16-16 16S0 24.837 0 16 7.163 0 16 0s16 7.163 16 16z"/><path fill="none" stroke="#fff" style="stroke:var(--color2,#fff)" stroke-linejoin="round" stroke-linecap="round" stroke-width="1.412" d="M13.882 9.647h4.235m-8.47 2.118h12.706m-1.412 0-.495 7.425c-.074 1.114-.111 1.671-.352 2.093a2.11 2.11 0 0 1-.917.857c-.437.212-.996.212-2.112.212h-2.131c-1.117 0-1.675 0-2.112-.212a2.127 2.127 0 0 1-.917-.857c-.241-.422-.278-.979-.352-2.093l-.495-7.425m3.53 3.176v3.529m2.824-3.529v3.529"/></symbol><symbol id="icon-slider2arrow" viewBox="0 0 32 32"><path fill="#111" style="fill:var(--color3,#111)" d="M32 16c0 8.837-7.163 16-16 16S0 24.837 0 16 7.163 0 16 0s16 7.163 16 16z"/><path fill="#b4afaf" style="fill:var(--color4,#b4afaf)" d="M12.073 16.516a.732.732 0 0 1 0-1.034l3.338-3.331a.732.732 0 0 0 0-1.034.73.73 0 0 0-1.026 0l-3.338 3.338a2.18 2.18 0 0 0 0 3.084l3.338 3.338a.728.728 0 0 0 1.025-1.034l-3.338-3.331z"/><path fill="#b4afaf" style="fill:var(--color4,#b4afaf)" d="M17.164 16.516a.732.732 0 0 1 0-1.034l3.338-3.331a.732.732 0 0 0 0-1.034.73.73 0 0 0-1.026 0l-3.338 3.338a2.18 2.18 0 0 0 0 3.084l3.338 3.338a.728.728 0 0 0 1.025-1.034l-3.338-3.331z"/></symbol><symbol id="icon-slider1arrow" viewBox="0 0 32 32"><path fill="#111" style="fill:var(--color3,#111)" d="M32 16c0 8.837-7.163 16-16 16S0 24.837 0 16 7.163 0 16 0s16 7.163 16 16z"/><path fill="#b4afaf" style="fill:var(--color4,#b4afaf)" d="M14.982 16.516a.732.732 0 0 1 0-1.034l3.338-3.331a.732.732 0 0 0 0-1.034.73.73 0 0 0-1.026 0l-3.338 3.338a2.18 2.18 0 0 0 0 3.084l3.338 3.338a.728.728 0 0 0 1.025-1.034l-3.338-3.331z"/></symbol><symbol id="icon-slider1arrowColor" viewBox="0 0 32 32"><path fill="#eac645" style="fill:var(--color5,#eac645);stroke:var(--color6,#000)" stroke="#000" stroke-width=".727" d="M31.636 16c0 8.636-7.001 15.636-15.636 15.636S.364 24.635.364 16C.364 7.364 7.365.364 16 .364S31.636 7.365 31.636 16z"/><path style="fill:var(--color6,#000)" d="M17.018 16.516a.732.732 0 0 0 0-1.034l-3.338-3.331a.732.732 0 0 1 0-1.034.73.73 0 0 1 1.026 0l3.338 3.338a2.18 2.18 0 0 1 0 3.084l-3.338 3.338a.728.728 0 0 1-1.025-1.034l3.338-3.331z"/></symbol><symbol id="icon-slider2arrowColor" viewBox="0 0 32 32"><path fill="#eac645" style="fill:var(--color5,#eac645);stroke:var(--color6,#000)" stroke="#000" stroke-width=".727" d="M31.636 16c0 8.636-7.001 15.636-15.636 15.636S.364 24.635.364 16C.364 7.364 7.365.364 16 .364S31.636 7.365 31.636 16z"/><path style="fill:var(--color6,#000)" d="M19.927 16.516a.732.732 0 0 0 0-1.034l-3.338-3.331a.732.732 0 0 1 0-1.034.725.725 0 0 1 1.026 0l3.338 3.338a2.18 2.18 0 0 1 0 3.084l-3.338 3.338a.728.728 0 0 1-1.025-1.034l3.338-3.331z"/><path style="fill:var(--color6,#000)" d="M14.836 16.516a.732.732 0 0 0 0-1.034l-3.338-3.331a.732.732 0 0 1 0-1.034.725.725 0 0 1 1.026 0l3.338 3.338a2.18 2.18 0 0 1 0 3.084l-3.338 3.338a.728.728 0 0 1-1.025-1.034l3.338-3.331z"/></symbol><symbol id="icon-logo-light" viewBox="0 0 126 32"><path fill="#f6f6f6" style="fill:var(--color1,#f6f6f6)" d="m0 2.286 14.008 13.861 13.42 13.567V2.285H-.001z"/><path fill="#f6f6f6" style="fill:var(--color1,#f6f6f6)" d="m3.82 5.91 10.237 10.139 9.649 9.845H3.82V5.91z"/><path fill="#4f2ee8" style="fill:var(--color2,#4f2ee8)" d="M23.771 25.959 13.534 15.82 3.885 5.975h19.886v19.984z"/><path fill="#4f2ee8" style="fill:var(--color2,#4f2ee8)" d="m7.935 10.024 11.657 11.657H7.935V10.024z"/><path fill="#f6f6f6" style="fill:var(--color1,#f6f6f6)" d="m7.935 10.024 11.657 11.657V10.024H7.935z"/><path style="fill:var(--color3,#000)" d="M47.659 12.266c0-2.366-1.749-3.703-4.773-3.703h-6.315v14.709h6.665c3.045 0 4.999-1.461 4.999-4.299 0-2.201-1.317-3.333-2.859-3.6v-.041c1.214-.411 2.283-1.255 2.283-3.065zm-8.64 2.387v-4.011h3.929c1.461 0 2.263.72 2.263 2.016s-.658 1.995-2.407 1.995h-3.785zm0 1.83h4.299c1.543 0 2.469.843 2.469 2.345 0 1.378-.638 2.366-2.736 2.366h-4.032v-4.711zM54.516 23.581c-3.291 0-5.287-2.283-5.287-5.554s1.995-5.554 5.287-5.554c3.291 0 5.287 2.283 5.287 5.554s-1.995 5.554-5.287 5.554zm0-1.77c2.057 0 3.127-1.625 3.127-3.785 0-2.181-1.07-3.785-3.127-3.785s-3.127 1.605-3.127 3.785c0 2.16 1.07 3.785 3.127 3.785zM66.027 23.581c-3.291 0-5.287-2.283-5.287-5.554s1.995-5.554 5.287-5.554c3.291 0 5.287 2.283 5.287 5.554s-1.995 5.554-5.287 5.554zm0-1.77c2.057 0 3.127-1.625 3.127-3.785 0-2.181-1.07-3.785-3.127-3.785S62.9 15.846 62.9 18.026c0 2.16 1.07 3.785 3.127 3.785zM72.807 8.563v14.709h2.16v-3.806l1.461-1.378 3.312 5.184h2.592l-4.423-6.603L81.9 12.76h-2.654l-4.279 4.217V8.563h-2.16zM87.539 16.915c-1.522-.35-2.695-.432-2.695-1.502 0-.741.699-1.234 1.995-1.234 1.687 0 2.098.843 2.242 1.666h2.098c-.144-1.831-1.502-3.374-4.361-3.374-2.633 0-4.155 1.378-4.155 3.106 0 2.386 2.263 2.715 3.929 3.106 1.543.37 2.798.473 2.798 1.79 0 .658-.638 1.399-2.139 1.399-2.222 0-2.715-.967-2.818-2.098h-2.098c.103 2.222 1.563 3.806 4.958 3.806 2.551 0 4.279-1.255 4.279-3.271 0-2.51-2.098-2.942-4.032-3.394zM98.633 12.472c-1.769 0-2.859.823-3.415 1.646h-.041V8.564h-2.16v14.709h2.16v-6.398c0-1.563 1.131-2.571 2.715-2.571 1.502 0 2.098.905 2.098 2.325v6.645h2.181v-7.262c0-2.407-1.543-3.538-3.538-3.538zM108.796 21.811c-1.913 0-3.045-1.461-3.045-3.23h8.064c0-3.744-1.666-6.11-5.061-6.11-3.168 0-5.163 2.139-5.163 5.554 0 3.291 1.995 5.554 5.266 5.554 2.695 0 4.258-1.522 4.793-3.518h-2.16c-.185.638-.905 1.749-2.695 1.749zm-.042-7.632c1.749 0 2.901 1.173 2.901 2.798h-5.904c0-1.625 1.255-2.798 3.003-2.798zM115.337 8.563v14.709h2.181V8.563h-2.181zM124.573 10.333V8.564a7.6 7.6 0 0 0-1.44-.144c-1.728 0-2.674.782-2.674 3.003v1.337h-1.502v1.769h1.502v8.743h2.181v-8.743h1.934V12.76h-1.934v-1.152c0-1.193.535-1.337 1.934-1.275z"/></symbol><symbol id="icon-logo-dark" viewBox="0 0 126 32"><path fill="#f6f6f6" style="fill:var(--color1,#f6f6f6)" d="m0 2.286 14.008 13.861 13.42 13.567V2.285H-.001z"/><path fill="#f6f6f6" style="fill:var(--color1,#f6f6f6)" d="m3.82 5.91 10.237 10.139 9.649 9.845H3.82V5.91z"/><path fill="#4f2ee8" style="fill:var(--color2,#4f2ee8)" d="M23.771 25.959 13.534 15.82 3.885 5.975h19.886v19.984z"/><path fill="#4f2ee8" style="fill:var(--color2,#4f2ee8)" d="m7.935 10.024 11.657 11.657H7.935V10.024z"/><path fill="#f6f6f6" style="fill:var(--color1,#f6f6f6)" d="m7.935 10.024 11.657 11.657V10.024H7.935z"/><path fill="#f3f3f3" style="fill:var(--color4,#f3f3f3)" d="M47.659 12.266c0-2.366-1.749-3.703-4.773-3.703h-6.315v14.709h6.665c3.045 0 4.999-1.461 4.999-4.299 0-2.201-1.317-3.333-2.859-3.6v-.041c1.214-.411 2.283-1.255 2.283-3.065zm-8.64 2.387v-4.011h3.929c1.461 0 2.263.72 2.263 2.016s-.658 1.995-2.407 1.995h-3.785zm0 1.83h4.299c1.543 0 2.469.843 2.469 2.345 0 1.378-.638 2.366-2.736 2.366h-4.032v-4.711zM54.516 23.581c-3.291 0-5.287-2.283-5.287-5.554s1.995-5.554 5.287-5.554c3.291 0 5.287 2.283 5.287 5.554s-1.995 5.554-5.287 5.554zm0-1.77c2.057 0 3.127-1.625 3.127-3.785 0-2.181-1.07-3.785-3.127-3.785s-3.127 1.605-3.127 3.785c0 2.16 1.07 3.785 3.127 3.785zM66.027 23.581c-3.291 0-5.287-2.283-5.287-5.554s1.995-5.554 5.287-5.554c3.291 0 5.287 2.283 5.287 5.554s-1.995 5.554-5.287 5.554zm0-1.77c2.057 0 3.127-1.625 3.127-3.785 0-2.181-1.07-3.785-3.127-3.785S62.9 15.846 62.9 18.026c0 2.16 1.07 3.785 3.127 3.785zM72.807 8.563v14.709h2.16v-3.806l1.461-1.378 3.312 5.184h2.592l-4.423-6.603L81.9 12.76h-2.654l-4.279 4.217V8.563h-2.16zM87.539 16.915c-1.522-.35-2.695-.432-2.695-1.502 0-.741.699-1.234 1.995-1.234 1.687 0 2.098.843 2.242 1.666h2.098c-.144-1.831-1.502-3.374-4.361-3.374-2.633 0-4.155 1.378-4.155 3.106 0 2.386 2.263 2.715 3.929 3.106 1.543.37 2.798.473 2.798 1.79 0 .658-.638 1.399-2.139 1.399-2.222 0-2.715-.967-2.818-2.098h-2.098c.103 2.222 1.563 3.806 4.958 3.806 2.551 0 4.279-1.255 4.279-3.271 0-2.51-2.098-2.942-4.032-3.394zM98.633 12.472c-1.769 0-2.859.823-3.415 1.646h-.041V8.564h-2.16v14.709h2.16v-6.398c0-1.563 1.131-2.571 2.715-2.571 1.502 0 2.098.905 2.098 2.325v6.645h2.181v-7.262c0-2.407-1.543-3.538-3.538-3.538zM108.796 21.811c-1.913 0-3.045-1.461-3.045-3.23h8.064c0-3.744-1.666-6.11-5.061-6.11-3.168 0-5.163 2.139-5.163 5.554 0 3.291 1.995 5.554 5.266 5.554 2.695 0 4.258-1.522 4.793-3.518h-2.16c-.185.638-.905 1.749-2.695 1.749zm-.042-7.632c1.749 0 2.901 1.173 2.901 2.798h-5.904c0-1.625 1.255-2.798 3.003-2.798zM115.337 8.563v14.709h2.181V8.563h-2.181zM124.573 10.333V8.564a7.6 7.6 0 0 0-1.44-.144c-1.728 0-2.674.782-2.674 3.003v1.337h-1.502v1.769h1.502v8.743h2.181v-8.743h1.934V12.76h-1.934v-1.152c0-1.193.535-1.337 1.934-1.275z"/></symbol><symbol id="icon-burger" viewBox="0 0 32 32"><path d="M3.498 6.936c-.218.065-.503.358-.566.582a2.376 2.376 0 0 0 0 .965c.066.235.349.515.591.585.25.072 24.699.072 24.959 0 .235-.066.515-.349.585-.591a2.284 2.284 0 0 0 0-.953c-.07-.242-.35-.525-.585-.591-.239-.066-24.762-.064-24.984.003zm0 5.333c-.218.065-.503.359-.566.583a2.376 2.376 0 0 0 0 .965c.066.235.349.515.591.585.25.072 19.367.071 19.625-.001.235-.065.517-.349.585-.59a2.29 2.29 0 0 0 0-.954c-.069-.241-.35-.525-.585-.59-.238-.066-19.429-.064-19.65.002zm-.015 5.337c-.229.066-.481.328-.547.57-.07.25-.071.727-.003.973.066.235.349.517.591.585.25.072 24.699.072 24.959 0 .235-.065.515-.349.585-.59a2.29 2.29 0 0 0 0-.954c-.07-.241-.35-.525-.585-.59-.248-.069-24.76-.064-24.999.006zm.015 5.33c-.218.065-.503.358-.566.582a2.376 2.376 0 0 0 0 .965c.066.235.349.515.591.585.25.072 19.367.071 19.625 0 .235-.066.517-.349.585-.591a2.284 2.284 0 0 0 0-.953c-.069-.242-.35-.525-.585-.591-.238-.066-19.429-.063-19.65.003z"/></symbol><symbol id="icon-full-logo-dark-theme" viewBox="0 0 98 32"><path fill="#f6f6f6" style="fill:var(--color1,#f6f6f6)" d="m0 1.714 14.592 14.439 13.98 14.133V1.715H.001z"/><path fill="#f6f6f6" style="fill:var(--color1,#f6f6f6)" d="m3.98 5.49 10.663 10.561 10.051 10.255H3.98V5.49z"/><path fill="#4f2ee8" style="fill:var(--color2,#4f2ee8)" d="M24.762 26.373 14.099 15.812 4.048 5.557h20.714v20.816z"/><path fill="#4f2ee8" style="fill:var(--color2,#4f2ee8)" d="m8.265 9.776 12.143 12.143H8.265V9.776z"/><path fill="#f6f6f6" style="fill:var(--color1,#f6f6f6)" d="m8.265 9.776 12.143 12.143V9.776H8.265z"/><path fill="#f3f3f3" style="fill:var(--color3,#f3f3f3)" d="M52.391 11.076c0-3.061-2.315-4.791-6.317-4.791h-8.36v19.029h8.822c4.03 0 6.617-1.89 6.617-5.562 0-2.848-1.743-4.312-3.785-4.658v-.053c1.607-.532 3.023-1.623 3.023-3.966zm-11.436 3.088v-5.19h5.201c1.933 0 2.995.931 2.995 2.608s-.871 2.582-3.186 2.582h-5.01zm0 2.368h5.691c2.042 0 3.268 1.091 3.268 3.034 0 1.783-.844 3.061-3.621 3.061h-5.337v-6.095zM61.467 25.714c-4.357 0-6.998-2.954-6.998-7.186s2.641-7.186 6.998-7.186 6.998 2.954 6.998 7.186c0 4.232-2.641 7.186-6.998 7.186zm0-2.289c2.723 0 4.139-2.103 4.139-4.897 0-2.821-1.416-4.897-4.139-4.897s-4.139 2.076-4.139 4.897c0 2.794 1.416 4.897 4.139 4.897zM76.704 25.714c-4.357 0-6.998-2.954-6.998-7.186s2.641-7.186 6.998-7.186 6.998 2.954 6.998 7.186-2.641 7.186-6.998 7.186zm0-2.289c2.723 0 4.139-2.103 4.139-4.897 0-2.821-1.416-4.897-4.139-4.897s-4.139 2.076-4.139 4.897c0 2.794 1.416 4.897 4.139 4.897zM85.678 6.286v19.029h2.859v-4.924l1.933-1.783 4.384 6.707h3.431l-5.854-8.543 5.283-5.057h-3.513l-5.664 5.456V6.286h-2.859z"/></symbol><symbol id="icon-full—logo" viewBox="0 0 98 32"><path fill="#f6f6f6" style="fill:var(--color1,#f6f6f6)" d="m0 1.714 14.592 14.439 13.98 14.133V1.715H.001z"/><path fill="#f6f6f6" style="fill:var(--color1,#f6f6f6)" d="m3.98 5.49 10.663 10.561 10.051 10.255H3.98V5.49z"/><path fill="#4f2ee8" style="fill:var(--color2,#4f2ee8)" d="M24.762 26.373 14.099 15.812 4.048 5.557h20.714v20.816z"/><path fill="#4f2ee8" style="fill:var(--color2,#4f2ee8)" d="m8.265 9.776 12.143 12.143H8.265V9.776z"/><path fill="#f6f6f6" style="fill:var(--color1,#f6f6f6)" d="m8.265 9.776 12.143 12.143V9.776H8.265z"/><path style="fill:var(--color4,#000)" d="M52.391 11.076c0-3.061-2.315-4.791-6.317-4.791h-8.36v19.029h8.822c4.03 0 6.617-1.89 6.617-5.562 0-2.848-1.743-4.312-3.785-4.658v-.053c1.607-.532 3.023-1.623 3.023-3.966zm-11.436 3.088v-5.19h5.201c1.933 0 2.995.931 2.995 2.608s-.871 2.582-3.186 2.582h-5.01zm0 2.368h5.691c2.042 0 3.268 1.091 3.268 3.034 0 1.783-.844 3.061-3.621 3.061h-5.337v-6.095zM61.467 25.714c-4.357 0-6.998-2.954-6.998-7.186s2.641-7.186 6.998-7.186 6.998 2.954 6.998 7.186c0 4.232-2.641 7.186-6.998 7.186zm0-2.289c2.723 0 4.139-2.103 4.139-4.897 0-2.821-1.416-4.897-4.139-4.897s-4.139 2.076-4.139 4.897c0 2.794 1.416 4.897 4.139 4.897zM76.704 25.714c-4.357 0-6.998-2.954-6.998-7.186s2.641-7.186 6.998-7.186 6.998 2.954 6.998 7.186-2.641 7.186-6.998 7.186zm0-2.289c2.723 0 4.139-2.103 4.139-4.897 0-2.821-1.416-4.897-4.139-4.897s-4.139 2.076-4.139 4.897c0 2.794 1.416 4.897 4.139 4.897zM85.678 6.286v19.029h2.859v-4.924l1.933-1.783 4.384 6.707h3.431l-5.854-8.543 5.283-5.057h-3.513l-5.664 5.456V6.286h-2.859z"/></symbol><symbol id="icon-X-close" viewBox="0 0 32 32"><path d="M7.626 6.245c-.291.085-.749.427-1.029.774-.432.533-.509 1.054-.24 1.616.088.184 1.011 1.143 3.665 3.806l3.547 3.56-3.551 3.56c-3.907 3.918-3.806 3.799-3.805 4.44 0 .449.157.77.586 1.199.429.43.75.586 1.199.586.634 0 .526.093 4.44-3.808l3.56-3.547 3.56 3.547c3.914 3.901 3.806 3.808 4.44 3.808.449 0 .77-.157 1.199-.586.43-.429.586-.75.586-1.199 0-.634.093-.526-3.808-4.44l-3.547-3.56 3.547-3.56c3.901-3.914 3.808-3.806 3.808-4.44 0-.449-.157-.77-.586-1.199-.429-.43-.75-.586-1.199-.586-.634 0-.526-.093-4.44 3.808l-3.56 3.547-3.56-3.547c-2.721-2.712-3.619-3.576-3.814-3.67-.29-.138-.728-.186-1-.109z"/></symbol></defs></svg>