<svg aria-hidden="true" style="position: absolute; width: 0; height: 0; overflow: hidden;" version="1.1" xmlns="http://www.w3.org/2000/svg" xmlns:xlink="http://www.w3.org/1999/xlink">
<defs>

<symbol id="icon-user" viewBox="0 0 32 32">
<path d="M32 16c0 8.837-7.163 16-16 16s-16-7.163-16-16c0-8.837 7.163-16 16-16s16 7.163 16 16z"></path>
<path d="M10.523 22.847c0-1.453 0.577-2.846 1.604-3.873s2.421-1.604 3.873-1.604 2.846 0.577 3.873 1.604c1.027 1.027 1.604 2.421 1.604 3.873h-10.955zM16 16.685c-2.27 0-4.108-1.838-4.108-4.108s1.838-4.108 4.108-4.108c2.27 0 4.108 1.838 4.108 4.108s-1.838 4.108-4.108 4.108z"></path>
</symbol>

<symbol id="icon-Logotype" viewBox="0 0 32 32">
<path d="M31.229 9.194c-0.684-0.358-1.396-0.656-2.138-0.91v17.947c-1.658-0.612-3.36-0.925-5.091-0.925-2.764 0-5.498 0.806-8 2.357v-18.051c-2.356-1.387-5.076-2.208-8-2.208-2.604 0-5.062 0.656-7.229 1.79-0.48 0.239-0.771 0.761-0.771 1.313v18.021c0 0.865 0.684 1.477 1.455 1.477 0.233 0 0.465-0.060 0.698-0.179 1.76-0.94 3.738-1.537 5.847-1.537 3.011 0 5.789 1.223 8 2.984 2.211-1.76 4.989-2.984 8-2.984 2.109 0 4.087 0.597 5.847 1.552 0.233 0.119 0.465 0.179 0.698 0.179 0.756 0 1.455-0.612 1.455-1.477v-18.036c0-0.552-0.291-1.074-0.771-1.313zM13.091 26.23c-1.658-0.612-3.36-0.925-5.091-0.925s-3.433 0.313-5.091 0.925v-14.784c1.615-0.701 3.316-1.059 5.091-1.059 1.745 0 3.476 0.373 5.091 1.074v14.769zM26.182 2.182l-7.273 7.459v14.172l7.273-6.713v-14.918z"></path>
</symbol>

<symbol id="icon-up" viewBox="0 0 32 32">
<path fill="#4f2ee8" style="fill: var(--color1, #4f2ee8)" opacity="0.3" d="M32 16c0 8.837-7.163 16-16 16s-16-7.163-16-16c0-8.837 7.163-16 16-16s16 7.163 16 16z"></path>
<path fill="#4f2ee8" style="fill: var(--color1, #4f2ee8)" d="M29.5 16c0 7.456-6.044 13.5-13.5 13.5s-13.5-6.044-13.5-13.5c0-7.456 6.044-13.5 13.5-13.5s13.5 6.044 13.5 13.5z"></path>
<path fill="#fff" style="fill: var(--color2, #fff)" d="M11.687 17.35l4.2-4.213c0.050-0.050 0.104-0.085 0.162-0.106s0.121-0.031 0.188-0.031c0.067 0 0.129 0.011 0.188 0.031s0.113 0.056 0.163 0.106l4.212 4.213c0.117 0.117 0.175 0.262 0.175 0.438s-0.063 0.325-0.188 0.45c-0.125 0.125-0.271 0.188-0.438 0.188s-0.313-0.063-0.438-0.188l-3.675-3.675-3.675 3.675c-0.117 0.117-0.26 0.175-0.431 0.175s-0.319-0.063-0.444-0.188-0.188-0.271-0.188-0.438c0-0.167 0.063-0.313 0.188-0.438z"></path>
</symbol>

<symbol id="icon-arrow-narrow-right" viewBox="0 0 32 32">
<path stroke-linejoin="round" stroke-linecap="round" stroke-miterlimit="4" stroke-width="3.2" d="M5.333 16h21.333M26.667 16l-8-8M26.667 16l-8 8"></path>
</symbol>

<symbol id="icon-dump" viewBox="0 0 32 32">
<path d="M32 16c0 8.837-7.163 16-16 16s-16-7.163-16-16c0-8.837 7.163-16 16-16s16 7.163 16 16z"></path>
<path stroke-linejoin="round" stroke-linecap="round" stroke-miterlimit="4" stroke-width="1.6842" d="M13.684 9.053h4.632M9.053 11.368h13.895M21.404 11.368l-0.541 8.12c-0.081 1.218-0.122 1.827-0.385 2.289-0.232 0.407-0.581 0.733-1.002 0.938-0.478 0.232-1.089 0.232-2.31 0.232h-2.33c-1.221 0-1.832 0-2.31-0.232-0.421-0.204-0.771-0.531-1.002-0.938-0.263-0.462-0.304-1.071-0.385-2.289l-0.541-8.12M14.456 14.842v3.86M17.544 14.842v3.86"></path>
</symbol>

<symbol id="icon-Switcher-3" viewBox="0 0 32 32">
<path d="M0 14.909c0-4.017 3.256-7.273 7.273-7.273h14.545c4.017 0 7.273 3.256 7.273 7.273s-3.256 7.273-7.273 7.273h-14.545c-4.017 0-7.273-3.256-7.273-7.273z"></path>
<path d="M21.818 21.455c3.615 0 6.545-2.93 6.545-6.545s-2.93-6.545-6.545-6.545c-3.615 0-6.545 2.931-6.545 6.545s2.93 6.545 6.545 6.545z"></path>
</symbol>

<symbol id="icon-Switcher-2" viewBox="0 0 32 32">
<path d="M1.524 14.857c0-4.208 3.411-7.619 7.619-7.619h15.238c4.208 0 7.619 3.411 7.619 7.619s-3.411 7.619-7.619 7.619h-15.238c-4.208 0-7.619-3.411-7.619-7.619z"></path>
<path d="M9.143 21.714c3.787 0 6.857-3.070 6.857-6.857s-3.070-6.857-6.857-6.857c-3.787 0-6.857 3.070-6.857 6.857s3.070 6.857 6.857 6.857z"></path>
</symbol>

<symbol id="icon-align-left" viewBox="0 0 32 32">
<path stroke-linejoin="round" stroke-linecap="round" stroke-miterlimit="4" stroke-width="2.2857" d="M22.667 13.333h-18.667"></path>
<path stroke-linejoin="round" stroke-linecap="round" stroke-miterlimit="4" stroke-width="2.2857" d="M28 8h-24"></path>
<path stroke-linejoin="round" stroke-linecap="round" stroke-miterlimit="4" stroke-width="2.2857" d="M28 18.667h-24"></path>
<path stroke-linejoin="round" stroke-linecap="round" stroke-miterlimit="4" stroke-width="2.2857" d="M22.667 24h-18.667"></path>
</symbol>

<symbol id="icon-mail-02" viewBox="0 0 32 32">
<path stroke-linejoin="round" stroke-linecap="round" stroke-miterlimit="4" stroke-width="2.2857" d="M28.666 24l-8.857-8M12.19 16l-8.857 8M2.667 9.333l10.887 7.621c0.882 0.617 1.322 0.926 1.802 1.045 0.423 0.106 0.866 0.106 1.29 0 0.479-0.12 0.92-0.428 1.802-1.045l10.887-7.621M9.067 26.667h13.867c2.24 0 3.36 0 4.216-0.436 0.753-0.384 1.365-0.995 1.748-1.748 0.436-0.856 0.436-1.976 0.436-4.216v-8.533c0-2.24 0-3.36-0.436-4.216-0.383-0.753-0.995-1.365-1.748-1.748-0.856-0.436-1.976-0.436-4.216-0.436h-13.867c-2.24 0-3.36 0-4.216 0.436-0.753 0.383-1.365 0.995-1.748 1.748-0.436 0.856-0.436 1.976-0.436 4.216v8.533c0 2.24 0 3.36 0.436 4.216 0.384 0.753 0.995 1.365 1.748 1.748 0.856 0.436 1.976 0.436 4.216 0.436z"></path>
</symbol>

<symbol id="icon-lock-02" viewBox="0 0 32 32">
<path stroke-linejoin="round" stroke-linecap="round" stroke-miterlimit="4" stroke-width="2.2857" d="M22.667 14.667v-4c0-3.682-2.985-6.667-6.667-6.667s-6.667 2.985-6.667 6.667v4M10.4 28h11.2c2.24 0 3.36 0 4.216-0.436 0.753-0.383 1.365-0.995 1.748-1.748 0.436-0.856 0.436-1.976 0.436-4.216v-0.533c0-2.24 0-3.36-0.436-4.216-0.383-0.753-0.995-1.365-1.748-1.748-0.856-0.436-1.976-0.436-4.216-0.436h-11.2c-2.24 0-3.36 0-4.216 0.436-0.753 0.384-1.365 0.995-1.748 1.748-0.436 0.856-0.436 1.976-0.436 4.216v0.533c0 2.24 0 3.36 0.436 4.216 0.383 0.753 0.995 1.365 1.748 1.748 0.856 0.436 1.976 0.436 4.216 0.436z"></path>
</symbol>

<symbol id="icon-x-close" viewBox="0 0 32 32">
<path stroke-linejoin="round" stroke-linecap="round" stroke-miterlimit="4" stroke-width="3.4286" d="M24 8l-16 16M8 8l16 16"></path>
</symbol>

<symbol id="icon-slider" viewBox="0 0 32 32">
<path d="M15.408 17.167c0.151 0.152 0.361 0.246 0.592 0.246s0.441-0.094 0.592-0.246l3.816-3.825c0.151-0.152 0.361-0.247 0.592-0.247 0.461 0 0.834 0.373 0.834 0.834 0 0.229-0.092 0.437-0.242 0.588l-3.825 3.825c-0.452 0.452-1.077 0.731-1.767 0.731s-1.315-0.279-1.767-0.732l-3.825-3.825c-0.15-0.151-0.242-0.358-0.242-0.588 0-0.461 0.373-0.834 0.834-0.834 0.231 0 0.441 0.094 0.592 0.246l0 0 3.816 3.825z"></path>
</symbol>

<symbol id="icon-trident" viewBox="0 0 20 32">
<path d="M9.005 30.888c-1.738-1.269-2.974-3.137-3.405-5.296l-0.009-0.055h-5.591v-23.117c2.991 1.443 5.153 4.6 5.388 7.876l0.845 6.493-0.407-0.045c-0.893 0-1.676 0.812-1.676 1.608 0 0.752 0.595 1.383 1.379 1.548l1.018 0.226c1.675-3.051 2.63-6.042 2.63-8.973 0-2.646-0.36-5.291-0.422-7.997 0-1.202 0.485-2.3 1.253-3.156 0.783 0.857 1.253 1.954 1.253 3.156 0 2.706-0.423 5.351-0.423 7.997 0 2.93 0.955 5.922 2.631 8.973l1.018-0.226c0.783-0.165 1.378-0.811 1.378-1.548 0-0.811-0.783-1.608-1.675-1.608l-0.423 0.060 0.845-6.493c0.423-3.277 2.398-6.448 5.388-7.876v23.117h-5.576c-0.422 2.18-1.613 4.148-3.414 5.35-0.423 0.286-0.783 0.632-1.018 1.098-0.22-0.466-0.58-0.812-0.987-1.112zM2.647 17.556c0.235-0.857 0.893-1.609 1.738-2.075l-0.658-5.35c-0.246-1.699-0.975-3.195-2.043-4.382l0.007 0.008v11.783h0.956v0.015zM5.466 23.929c0-0.812 0.125-1.548 0.298-2.3l-0.784-0.18c-1.143-0.346-2.036-1.203-2.333-2.3h-0.957v4.78h3.775zM9.178 23.929c0-0.977-0.783-1.834-1.801-1.954-0.173 0.63-0.298 1.262-0.298 1.954h2.099zM9.178 25.552h-1.864c0.298 1.262 0.955 2.42 1.864 3.397v-3.397zM11.808 20.547c-0.72-1.263-1.377-2.585-1.8-3.968-0.423 1.383-1.080 2.705-1.801 3.968 0.72 0.165 1.315 0.631 1.8 1.157 0.486-0.526 1.082-0.992 1.802-1.157zM12.952 23.929c0-0.692-0.125-1.323-0.297-1.954-1.018 0.12-1.801 0.977-1.801 1.954h2.098zM12.717 25.552h-1.863v3.397c0.908-0.992 1.566-2.135 1.863-3.397zM18.34 23.929v-4.78h-0.956c-0.297 1.097-1.206 1.954-2.333 2.3l-0.783 0.18c0.172 0.752 0.297 1.488 0.297 2.3h3.775zM18.34 17.556v-11.8c-1.080 1.203-1.864 2.706-2.036 4.375l-0.658 5.35c0.846 0.466 1.504 1.203 1.738 2.075h0.956z"></path>
</symbol>

<symbol id="icon-logo" viewBox="0 0 32 32">
<path fill="#f6f6f6" style="fill: var(--color1, #f6f6f6)" d="M0 0l16.343 16.171 15.657 15.829v-32h-32z"></path>
<path fill="#f6f6f6" style="fill: var(--color1, #f6f6f6)" d="M4.457 4.229l11.943 11.829 11.257 11.486h-23.2v-23.314z"></path>
<path fill="#4f2ee8" style="fill: var(--color2, #4f2ee8)" d="M27.733 27.618l-11.943-11.829-11.257-11.486h23.2v23.314z"></path>
<path fill="#4f2ee8" style="fill: var(--color2, #4f2ee8)" d="M9.257 9.029l13.6 13.6h-13.6v-13.6z"></path>
<path fill="#f6f6f6" style="fill: var(--color1, #f6f6f6)" d="M9.257 9.029l13.6 13.6v-13.6h-13.6z"></path>
</symbol>

<symbol id="icon-shopping-cart" viewBox="0 0 32 32">
<path d="M25.334 9.333h-4v-1.333c0-1.415-0.562-2.771-1.562-3.771s-2.357-1.562-3.771-1.562c-1.415 0-2.771 0.562-3.771 1.562s-1.562 2.357-1.562 3.771v1.333h-4c-0.354 0-0.693 0.14-0.943 0.391s-0.391 0.589-0.391 0.943v14.667c0 1.061 0.421 2.078 1.172 2.828s1.768 1.172 2.828 1.172h13.333c1.061 0 2.078-0.421 2.828-1.172s1.172-1.768 1.172-2.828v-14.667c0-0.354-0.14-0.693-0.391-0.943s-0.589-0.391-0.943-0.391zM13.334 8c0-0.707 0.281-1.386 0.781-1.886s1.178-0.781 1.886-0.781c0.707 0 1.385 0.281 1.886 0.781s0.781 1.178 0.781 1.886v1.333h-5.333v-1.333zM24 25.333c0 0.354-0.14 0.693-0.391 0.943s-0.589 0.391-0.943 0.391h-13.333c-0.354 0-0.693-0.14-0.943-0.391s-0.391-0.589-0.391-0.943v-13.333h2.667v1.333c0 0.354 0.14 0.693 0.391 0.943s0.589 0.391 0.943 0.391c0.354 0 0.693-0.14 0.943-0.391s0.39-0.589 0.39-0.943v-1.333h5.333v1.333c0 0.354 0.14 0.693 0.391 0.943s0.589 0.391 0.943 0.391c0.354 0 0.693-0.14 0.943-0.391s0.391-0.589 0.391-0.943v-1.333h2.667v13.333z"></path>
</symbol>

<symbol id="icon-dump2" viewBox="0 0 32 32">
<path fill="#4f2ee8" style="fill: var(--color1, #4f2ee8)" d="M32 16c0 8.837-7.163 16-16 16s-16-7.163-16-16c0-8.837 7.163-16 16-16s16 7.163 16 16z"></path>
<path fill="none" stroke="#fff" style="stroke: var(--color2, #fff)" stroke-linejoin="round" stroke-linecap="round" stroke-miterlimit="4" stroke-width="1.4118" d="M13.882 9.647h4.235M9.647 11.765h12.706M20.941 11.765l-0.495 7.425c-0.074 1.114-0.111 1.671-0.352 2.093-0.212 0.372-0.531 0.671-0.917 0.857-0.437 0.212-0.996 0.212-2.112 0.212h-2.131c-1.117 0-1.675 0-2.112-0.212-0.385-0.187-0.705-0.486-0.917-0.857-0.241-0.422-0.278-0.979-0.352-2.093l-0.495-7.425M14.588 14.941v3.529M17.412 14.941v3.529"></path>
</symbol>
<symbol id="icon-slider2arrow" viewBox="0 0 32 32">
<path fill="#111" style="fill: var(--color3, #111)" d="M32 16c0 8.837-7.163 16-16 16s-16-7.163-16-16c0-8.837 7.163-16 16-16s16 7.163 16 16z"></path>
<path fill="#b4afaf" style="fill: var(--color4, #b4afaf)" d="M12.073 16.516c-0.068-0.068-0.122-0.148-0.159-0.237s-0.056-0.184-0.056-0.28 0.019-0.191 0.056-0.28c0.037-0.089 0.091-0.169 0.159-0.237l3.338-3.331c0.068-0.068 0.122-0.148 0.159-0.237s0.056-0.184 0.056-0.28-0.019-0.191-0.056-0.28c-0.037-0.089-0.091-0.169-0.159-0.237-0.136-0.135-0.321-0.211-0.513-0.211s-0.377 0.076-0.513 0.211l-3.338 3.338c-0.409 0.409-0.638 0.964-0.638 1.542s0.23 1.133 0.638 1.542l3.338 3.338c0.135 0.134 0.318 0.21 0.509 0.211 0.096 0.001 0.191-0.018 0.279-0.054s0.169-0.090 0.237-0.157c0.068-0.068 0.122-0.148 0.159-0.237s0.056-0.184 0.056-0.28c0-0.096-0.019-0.191-0.056-0.28s-0.091-0.169-0.159-0.237l-3.338-3.331z"></path>
<path fill="#b4afaf" style="fill: var(--color4, #b4afaf)" d="M17.164 16.516c-0.068-0.068-0.122-0.148-0.159-0.237s-0.056-0.184-0.056-0.28 0.019-0.191 0.056-0.28c0.037-0.089 0.091-0.169 0.159-0.237l3.338-3.331c0.068-0.068 0.122-0.148 0.159-0.237s0.056-0.184 0.056-0.28-0.019-0.191-0.056-0.28c-0.037-0.089-0.091-0.169-0.159-0.237-0.136-0.135-0.321-0.211-0.513-0.211s-0.377 0.076-0.513 0.211l-3.338 3.338c-0.409 0.409-0.638 0.964-0.638 1.542s0.23 1.133 0.638 1.542l3.338 3.338c0.135 0.134 0.318 0.21 0.509 0.211 0.096 0.001 0.191-0.018 0.279-0.054s0.169-0.090 0.237-0.157c0.068-0.068 0.122-0.148 0.159-0.237s0.056-0.184 0.056-0.28c0-0.096-0.019-0.191-0.056-0.28s-0.091-0.169-0.159-0.237l-3.338-3.331z"></path>
</symbol>
<symbol id="icon-slider1arrow" viewBox="0 0 32 32">
<path fill="#111" style="fill: var(--color3, #111)" d="M32 16c0 8.837-7.163 16-16 16s-16-7.163-16-16c0-8.837 7.163-16 16-16s16 7.163 16 16z"></path>
<path fill="#b4afaf" style="fill: var(--color4, #b4afaf)" d="M14.982 16.516c-0.068-0.068-0.122-0.148-0.159-0.237s-0.056-0.184-0.056-0.28 0.019-0.191 0.056-0.28c0.037-0.089 0.091-0.169 0.159-0.237l3.338-3.331c0.068-0.068 0.122-0.148 0.159-0.237s0.056-0.184 0.056-0.28-0.019-0.191-0.056-0.28c-0.037-0.089-0.091-0.169-0.159-0.237-0.136-0.135-0.321-0.211-0.513-0.211s-0.377 0.076-0.513 0.211l-3.338 3.338c-0.409 0.409-0.638 0.964-0.638 1.542s0.23 1.133 0.638 1.542l3.338 3.338c0.135 0.134 0.318 0.21 0.509 0.211 0.096 0.001 0.191-0.018 0.279-0.054s0.169-0.090 0.237-0.157c0.068-0.068 0.122-0.148 0.159-0.237s0.056-0.184 0.056-0.28c0-0.096-0.019-0.191-0.056-0.28s-0.091-0.169-0.159-0.237l-3.338-3.331z"></path>
</symbol>
<symbol id="icon-slider1arrowColor" viewBox="0 0 32 32">
<path fill="#eac645" style="fill: var(--color5, #eac645); stroke: var(--color6, #000)" stroke="#000" stroke-linejoin="miter" stroke-linecap="butt" stroke-miterlimit="4" stroke-width="0.7273" d="M31.636 16c0 8.636-7.001 15.636-15.636 15.636s-15.636-7.001-15.636-15.636c0-8.636 7.001-15.636 15.636-15.636s15.636 7.001 15.636 15.636z"></path>
<path fill="#000" style="fill: var(--color6, #000)" d="M17.018 16.516c0.068-0.068 0.122-0.148 0.159-0.237s0.056-0.184 0.056-0.28c0-0.096-0.019-0.191-0.056-0.28s-0.091-0.169-0.159-0.237l-3.338-3.331c-0.068-0.068-0.122-0.148-0.159-0.237s-0.056-0.184-0.056-0.28c0-0.096 0.019-0.191 0.056-0.28s0.091-0.169 0.159-0.237c0.136-0.135 0.321-0.211 0.513-0.211s0.377 0.076 0.513 0.211l3.338 3.338c0.409 0.409 0.638 0.964 0.638 1.542s-0.23 1.133-0.638 1.542l-3.338 3.338c-0.135 0.134-0.318 0.21-0.509 0.211-0.096 0-0.191-0.018-0.279-0.054s-0.169-0.090-0.237-0.157c-0.068-0.068-0.122-0.148-0.159-0.237s-0.056-0.184-0.056-0.28c0-0.096 0.019-0.191 0.056-0.28s0.091-0.169 0.159-0.237l3.338-3.331z"></path>
</symbol>
<symbol id="icon-slider2arrowColor" viewBox="0 0 32 32">
<path fill="#eac645" style="fill: var(--color5, #eac645); stroke: var(--color6, #000)" stroke="#000" stroke-linejoin="miter" stroke-linecap="butt" stroke-miterlimit="4" stroke-width="0.7273" d="M31.636 16c0 8.636-7.001 15.636-15.636 15.636s-15.636-7.001-15.636-15.636c0-8.636 7.001-15.636 15.636-15.636s15.636 7.001 15.636 15.636z"></path>
<path fill="#000" style="fill: var(--color6, #000)" d="M19.927 16.516c0.068-0.068 0.122-0.148 0.159-0.237s0.056-0.184 0.056-0.28-0.019-0.191-0.056-0.28c-0.037-0.089-0.091-0.169-0.159-0.237l-3.338-3.331c-0.068-0.068-0.122-0.148-0.159-0.237s-0.056-0.184-0.056-0.28c0-0.096 0.019-0.191 0.056-0.28s0.091-0.169 0.159-0.237c0.136-0.136 0.321-0.211 0.513-0.211s0.377 0.076 0.513 0.211l3.338 3.338c0.409 0.409 0.638 0.964 0.638 1.542s-0.23 1.133-0.638 1.542l-3.338 3.338c-0.135 0.134-0.318 0.21-0.509 0.211-0.096 0-0.191-0.018-0.279-0.054s-0.169-0.090-0.237-0.157c-0.068-0.068-0.122-0.148-0.159-0.237s-0.056-0.184-0.056-0.28 0.019-0.191 0.056-0.28c0.037-0.089 0.091-0.169 0.159-0.237l3.338-3.331z"></path>
<path fill="#000" style="fill: var(--color6, #000)" d="M14.836 16.516c0.068-0.068 0.122-0.148 0.159-0.237s0.056-0.184 0.056-0.28-0.019-0.191-0.056-0.28c-0.037-0.089-0.091-0.169-0.159-0.237l-3.338-3.331c-0.068-0.068-0.122-0.148-0.159-0.237s-0.056-0.184-0.056-0.28c0-0.096 0.019-0.191 0.056-0.28s0.091-0.169 0.159-0.237c0.136-0.136 0.321-0.211 0.513-0.211s0.377 0.076 0.513 0.211l3.338 3.338c0.409 0.409 0.638 0.964 0.638 1.542s-0.23 1.133-0.638 1.542l-3.338 3.338c-0.135 0.134-0.318 0.21-0.509 0.211-0.096 0-0.191-0.018-0.279-0.054s-0.169-0.090-0.237-0.157c-0.068-0.068-0.122-0.148-0.159-0.237s-0.056-0.184-0.056-0.28 0.019-0.191 0.056-0.28c0.037-0.089 0.091-0.169 0.159-0.237l3.338-3.331z"></path>
</symbol>

<symbol id="icon-logo-light" viewBox="0 0 126 32">
<path fill="#f6f6f6" style="fill: var(--color1, #f6f6f6)" d="M0 2.286l14.008 13.861 13.42 13.567v-27.429h-27.429z"></path>
<path fill="#f6f6f6" style="fill: var(--color1, #f6f6f6)" d="M3.82 5.91l10.237 10.139 9.649 9.845h-19.886v-19.984z"></path>
<path fill="#4f2ee8" style="fill: var(--color2, #4f2ee8)" d="M23.771 25.959l-10.237-10.139-9.649-9.845h19.886v19.984z"></path>
<path fill="#4f2ee8" style="fill: var(--color2, #4f2ee8)" d="M7.935 10.024l11.657 11.657h-11.657v-11.657z"></path>
<path fill="#f6f6f6" style="fill: var(--color1, #f6f6f6)" d="M7.935 10.024l11.657 11.657v-11.657h-11.657z"></path>
<path fill="#000" style="fill: var(--color3, #000)" d="M47.659 12.266c0-2.366-1.749-3.703-4.773-3.703h-6.315v14.709h6.665c3.045 0 4.999-1.461 4.999-4.299 0-2.201-1.317-3.333-2.859-3.6v-0.041c1.214-0.411 2.283-1.255 2.283-3.065zM39.019 14.653v-4.011h3.929c1.461 0 2.263 0.72 2.263 2.016s-0.658 1.995-2.407 1.995h-3.785zM39.019 16.483h4.299c1.543 0 2.469 0.843 2.469 2.345 0 1.378-0.638 2.366-2.736 2.366h-4.032v-4.711z"></path>
<path fill="#000" style="fill: var(--color3, #000)" d="M54.516 23.581c-3.291 0-5.287-2.283-5.287-5.554s1.995-5.554 5.287-5.554c3.291 0 5.287 2.283 5.287 5.554s-1.995 5.554-5.287 5.554zM54.516 21.811c2.057 0 3.127-1.625 3.127-3.785 0-2.181-1.070-3.785-3.127-3.785s-3.127 1.605-3.127 3.785c0 2.16 1.070 3.785 3.127 3.785z"></path>
<path fill="#000" style="fill: var(--color3, #000)" d="M66.027 23.581c-3.291 0-5.287-2.283-5.287-5.554s1.995-5.554 5.287-5.554c3.291 0 5.287 2.283 5.287 5.554s-1.995 5.554-5.287 5.554zM66.027 21.811c2.057 0 3.127-1.625 3.127-3.785 0-2.181-1.070-3.785-3.127-3.785s-3.127 1.605-3.127 3.785c0 2.16 1.070 3.785 3.127 3.785z"></path>
<path fill="#000" style="fill: var(--color3, #000)" d="M72.807 8.563v14.709h2.16v-3.806l1.461-1.378 3.312 5.184h2.592l-4.423-6.603 3.991-3.909h-2.654l-4.279 4.217v-8.414h-2.16z"></path>
<path fill="#000" style="fill: var(--color3, #000)" d="M87.539 16.915c-1.522-0.35-2.695-0.432-2.695-1.502 0-0.741 0.699-1.234 1.995-1.234 1.687 0 2.098 0.843 2.242 1.666h2.098c-0.144-1.831-1.502-3.374-4.361-3.374-2.633 0-4.155 1.378-4.155 3.106 0 2.386 2.263 2.715 3.929 3.106 1.543 0.37 2.798 0.473 2.798 1.79 0 0.658-0.638 1.399-2.139 1.399-2.222 0-2.715-0.967-2.818-2.098h-2.098c0.103 2.222 1.563 3.806 4.958 3.806 2.551 0 4.279-1.255 4.279-3.271 0-2.51-2.098-2.942-4.032-3.394z"></path>
<path fill="#000" style="fill: var(--color3, #000)" d="M98.633 12.472c-1.769 0-2.859 0.823-3.415 1.646h-0.041v-5.554h-2.16v14.709h2.16v-6.398c0-1.563 1.131-2.571 2.715-2.571 1.502 0 2.098 0.905 2.098 2.325v6.645h2.181v-7.262c0-2.407-1.543-3.538-3.538-3.538z"></path>
<path fill="#000" style="fill: var(--color3, #000)" d="M108.796 21.811c-1.913 0-3.045-1.461-3.045-3.23h8.064c0-3.744-1.666-6.11-5.061-6.11-3.168 0-5.163 2.139-5.163 5.554 0 3.291 1.995 5.554 5.266 5.554 2.695 0 4.258-1.522 4.793-3.518h-2.16c-0.185 0.638-0.905 1.749-2.695 1.749zM108.754 14.179c1.749 0 2.901 1.173 2.901 2.798h-5.904c0-1.625 1.255-2.798 3.003-2.798z"></path>
<path fill="#000" style="fill: var(--color3, #000)" d="M115.337 8.563v14.709h2.181v-14.709h-2.181z"></path>
<path fill="#000" style="fill: var(--color3, #000)" d="M124.573 10.333v-1.769c-0.432-0.082-0.905-0.144-1.44-0.144-1.728 0-2.674 0.782-2.674 3.003v1.337h-1.502v1.769h1.502v8.743h2.181v-8.743h1.934v-1.769h-1.934v-1.152c0-1.193 0.535-1.337 1.934-1.275z"></path>
</symbol>

<symbol id="icon-logo-dark" viewBox="0 0 126 32">
<path fill="#f6f6f6" style="fill: var(--color1, #f6f6f6)" d="M0 2.286l14.008 13.861 13.42 13.567v-27.429h-27.429z"></path>
<path fill="#f6f6f6" style="fill: var(--color1, #f6f6f6)" d="M3.82 5.91l10.237 10.139 9.649 9.845h-19.886v-19.984z"></path>
<path fill="#4f2ee8" style="fill: var(--color2, #4f2ee8)" d="M23.771 25.959l-10.237-10.139-9.649-9.845h19.886v19.984z"></path>
<path fill="#4f2ee8" style="fill: var(--color2, #4f2ee8)" d="M7.935 10.024l11.657 11.657h-11.657v-11.657z"></path>
<path fill="#f6f6f6" style="fill: var(--color1, #f6f6f6)" d="M7.935 10.024l11.657 11.657v-11.657h-11.657z"></path>
<path fill="#f3f3f3" style="fill: var(--color4, #f3f3f3)" d="M47.659 12.266c0-2.366-1.749-3.703-4.773-3.703h-6.315v14.709h6.665c3.045 0 4.999-1.461 4.999-4.299 0-2.201-1.317-3.333-2.859-3.6v-0.041c1.214-0.411 2.283-1.255 2.283-3.065zM39.019 14.653v-4.011h3.929c1.461 0 2.263 0.72 2.263 2.016s-0.658 1.995-2.407 1.995h-3.785zM39.019 16.483h4.299c1.543 0 2.469 0.843 2.469 2.345 0 1.378-0.638 2.366-2.736 2.366h-4.032v-4.711z"></path>
<path fill="#f3f3f3" style="fill: var(--color4, #f3f3f3)" d="M54.516 23.581c-3.291 0-5.287-2.283-5.287-5.554s1.995-5.554 5.287-5.554c3.291 0 5.287 2.283 5.287 5.554s-1.995 5.554-5.287 5.554zM54.516 21.811c2.057 0 3.127-1.625 3.127-3.785 0-2.181-1.070-3.785-3.127-3.785s-3.127 1.605-3.127 3.785c0 2.16 1.070 3.785 3.127 3.785z"></path>
<path fill="#f3f3f3" style="fill: var(--color4, #f3f3f3)" d="M66.027 23.581c-3.291 0-5.287-2.283-5.287-5.554s1.995-5.554 5.287-5.554c3.291 0 5.287 2.283 5.287 5.554s-1.995 5.554-5.287 5.554zM66.027 21.811c2.057 0 3.127-1.625 3.127-3.785 0-2.181-1.070-3.785-3.127-3.785s-3.127 1.605-3.127 3.785c0 2.16 1.070 3.785 3.127 3.785z"></path>
<path fill="#f3f3f3" style="fill: var(--color4, #f3f3f3)" d="M72.807 8.563v14.709h2.16v-3.806l1.461-1.378 3.312 5.184h2.592l-4.423-6.603 3.991-3.909h-2.654l-4.279 4.217v-8.414h-2.16z"></path>
<path fill="#f3f3f3" style="fill: var(--color4, #f3f3f3)" d="M87.539 16.915c-1.522-0.35-2.695-0.432-2.695-1.502 0-0.741 0.699-1.234 1.995-1.234 1.687 0 2.098 0.843 2.242 1.666h2.098c-0.144-1.831-1.502-3.374-4.361-3.374-2.633 0-4.155 1.378-4.155 3.106 0 2.386 2.263 2.715 3.929 3.106 1.543 0.37 2.798 0.473 2.798 1.79 0 0.658-0.638 1.399-2.139 1.399-2.222 0-2.715-0.967-2.818-2.098h-2.098c0.103 2.222 1.563 3.806 4.958 3.806 2.551 0 4.279-1.255 4.279-3.271 0-2.51-2.098-2.942-4.032-3.394z"></path>
<path fill="#f3f3f3" style="fill: var(--color4, #f3f3f3)" d="M98.633 12.472c-1.769 0-2.859 0.823-3.415 1.646h-0.041v-5.554h-2.16v14.709h2.16v-6.398c0-1.563 1.131-2.571 2.715-2.571 1.502 0 2.098 0.905 2.098 2.325v6.645h2.181v-7.262c0-2.407-1.543-3.538-3.538-3.538z"></path>
<path fill="#f3f3f3" style="fill: var(--color4, #f3f3f3)" d="M108.796 21.811c-1.913 0-3.045-1.461-3.045-3.23h8.064c0-3.744-1.666-6.11-5.061-6.11-3.168 0-5.163 2.139-5.163 5.554 0 3.291 1.995 5.554 5.266 5.554 2.695 0 4.258-1.522 4.793-3.518h-2.16c-0.185 0.638-0.905 1.749-2.695 1.749zM108.754 14.179c1.749 0 2.901 1.173 2.901 2.798h-5.904c0-1.625 1.255-2.798 3.003-2.798z"></path>
<path fill="#f3f3f3" style="fill: var(--color4, #f3f3f3)" d="M115.337 8.563v14.709h2.181v-14.709h-2.181z"></path>
<path fill="#f3f3f3" style="fill: var(--color4, #f3f3f3)" d="M124.573 10.333v-1.769c-0.432-0.082-0.905-0.144-1.44-0.144-1.728 0-2.674 0.782-2.674 3.003v1.337h-1.502v1.769h1.502v8.743h2.181v-8.743h1.934v-1.769h-1.934v-1.152c0-1.193 0.535-1.337 1.934-1.275z"></path>
</symbol>

<symbol id="icon-burger" viewBox="0 0 32 32">
<title>burger</title>
<path d="M3.498 6.936c-0.218 0.065-0.503 0.358-0.566 0.582-0.066 0.242-0.066 0.722 0 0.965 0.066 0.235 0.349 0.515 0.591 0.585 0.25 0.072 24.699 0.072 24.959 0 0.235-0.066 0.515-0.349 0.585-0.591 0.067-0.234 0.067-0.719 0-0.953-0.070-0.242-0.35-0.525-0.585-0.591-0.239-0.066-24.762-0.064-24.984 0.003zM3.498 12.269c-0.218 0.065-0.503 0.359-0.566 0.583-0.066 0.242-0.066 0.722 0 0.965 0.066 0.235 0.349 0.515 0.591 0.585 0.25 0.072 19.367 0.071 19.625-0.001 0.235-0.065 0.517-0.349 0.585-0.59 0.067-0.234 0.067-0.719 0-0.954-0.069-0.241-0.35-0.525-0.585-0.59-0.238-0.066-19.429-0.064-19.65 0.002zM3.483 17.606c-0.229 0.066-0.481 0.328-0.547 0.57-0.070 0.25-0.071 0.727-0.003 0.973 0.066 0.235 0.349 0.517 0.591 0.585 0.25 0.072 24.699 0.072 24.959 0 0.235-0.065 0.515-0.349 0.585-0.59 0.067-0.235 0.067-0.72 0-0.954-0.070-0.241-0.35-0.525-0.585-0.59-0.248-0.069-24.76-0.064-24.999 0.006zM3.498 22.936c-0.218 0.065-0.503 0.358-0.566 0.582-0.066 0.242-0.066 0.722 0 0.965 0.066 0.235 0.349 0.515 0.591 0.585 0.25 0.072 19.367 0.071 19.625 0 0.235-0.066 0.517-0.349 0.585-0.591 0.067-0.234 0.067-0.719 0-0.953-0.069-0.242-0.35-0.525-0.585-0.591-0.238-0.066-19.429-0.063-19.65 0.003z"></path>
</symbol>

<symbol id="icon-full-logo-dark-theme" viewBox="0 0 98 32">
<title>full-logo--dark-theme</title>
<path fill="#f6f6f6" style="fill: var(--color1, #f6f6f6)" d="M0 1.714l14.592 14.439 13.98 14.133v-28.571h-28.571z"></path>
<path fill="#f6f6f6" style="fill: var(--color1, #f6f6f6)" d="M3.98 5.49l10.663 10.561 10.051 10.255h-20.714v-20.816z"></path>
<path fill="#4f2ee8" style="fill: var(--color2, #4f2ee8)" d="M24.762 26.373l-10.663-10.561-10.051-10.255h20.714v20.816z"></path>
<path fill="#4f2ee8" style="fill: var(--color2, #4f2ee8)" d="M8.265 9.776l12.143 12.143h-12.143v-12.143z"></path>
<path fill="#f6f6f6" style="fill: var(--color1, #f6f6f6)" d="M8.265 9.776l12.143 12.143v-12.143h-12.143z"></path>
<path fill="#f3f3f3" style="fill: var(--color3, #f3f3f3)" d="M52.391 11.076c0-3.061-2.315-4.791-6.317-4.791h-8.36v19.029h8.822c4.030 0 6.617-1.89 6.617-5.562 0-2.848-1.743-4.312-3.785-4.658v-0.053c1.607-0.532 3.023-1.623 3.023-3.966zM40.955 14.164v-5.19h5.201c1.933 0 2.995 0.931 2.995 2.608s-0.871 2.582-3.186 2.582h-5.010zM40.955 16.532h5.691c2.042 0 3.268 1.091 3.268 3.034 0 1.783-0.844 3.061-3.621 3.061h-5.337v-6.095z"></path>
<path fill="#f3f3f3" style="fill: var(--color3, #f3f3f3)" d="M61.467 25.714c-4.357 0-6.998-2.954-6.998-7.186s2.641-7.186 6.998-7.186 6.998 2.954 6.998 7.186c0 4.232-2.641 7.186-6.998 7.186zM61.467 23.425c2.723 0 4.139-2.103 4.139-4.897 0-2.821-1.416-4.897-4.139-4.897s-4.139 2.076-4.139 4.897c0 2.794 1.416 4.897 4.139 4.897z"></path>
<path fill="#f3f3f3" style="fill: var(--color3, #f3f3f3)" d="M76.704 25.714c-4.357 0-6.998-2.954-6.998-7.186s2.641-7.186 6.998-7.186c4.357 0 6.998 2.954 6.998 7.186s-2.641 7.186-6.998 7.186zM76.704 23.425c2.723 0 4.139-2.103 4.139-4.897 0-2.821-1.416-4.897-4.139-4.897s-4.139 2.076-4.139 4.897c0 2.794 1.416 4.897 4.139 4.897z"></path>
<path fill="#f3f3f3" style="fill: var(--color3, #f3f3f3)" d="M85.678 6.286v19.029h2.859v-4.924l1.933-1.783 4.384 6.707h3.431l-5.854-8.543 5.283-5.057h-3.513l-5.664 5.456v-10.885h-2.859z"></path>
</symbol>

<symbol id="icon-full—logo" viewBox="0 0 98 32">
<title>full-logo</title>
<path fill="#f6f6f6" style="fill: var(--color1, #f6f6f6)" d="M0 1.714l14.592 14.439 13.98 14.133v-28.571h-28.571z"></path>
<path fill="#f6f6f6" style="fill: var(--color1, #f6f6f6)" d="M3.98 5.49l10.663 10.561 10.051 10.255h-20.714v-20.816z"></path>
<path fill="#4f2ee8" style="fill: var(--color2, #4f2ee8)" d="M24.762 26.373l-10.663-10.561-10.051-10.255h20.714v20.816z"></path>
<path fill="#4f2ee8" style="fill: var(--color2, #4f2ee8)" d="M8.265 9.776l12.143 12.143h-12.143v-12.143z"></path>
<path fill="#f6f6f6" style="fill: var(--color1, #f6f6f6)" d="M8.265 9.776l12.143 12.143v-12.143h-12.143z"></path>
<path fill="#000" style="fill: var(--color4, #000)" d="M52.391 11.076c0-3.061-2.315-4.791-6.317-4.791h-8.36v19.029h8.822c4.030 0 6.617-1.89 6.617-5.562 0-2.848-1.743-4.312-3.785-4.658v-0.053c1.607-0.532 3.023-1.623 3.023-3.966zM40.955 14.164v-5.19h5.201c1.933 0 2.995 0.931 2.995 2.608s-0.871 2.582-3.186 2.582h-5.010zM40.955 16.532h5.691c2.042 0 3.268 1.091 3.268 3.034 0 1.783-0.844 3.061-3.621 3.061h-5.337v-6.095z"></path>
<path fill="#000" style="fill: var(--color4, #000)" d="M61.467 25.714c-4.357 0-6.998-2.954-6.998-7.186s2.641-7.186 6.998-7.186 6.998 2.954 6.998 7.186c0 4.232-2.641 7.186-6.998 7.186zM61.467 23.425c2.723 0 4.139-2.103 4.139-4.897 0-2.821-1.416-4.897-4.139-4.897s-4.139 2.076-4.139 4.897c0 2.794 1.416 4.897 4.139 4.897z"></path>
<path fill="#000" style="fill: var(--color4, #000)" d="M76.704 25.714c-4.357 0-6.998-2.954-6.998-7.186s2.641-7.186 6.998-7.186c4.357 0 6.998 2.954 6.998 7.186s-2.641 7.186-6.998 7.186zM76.704 23.425c2.723 0 4.139-2.103 4.139-4.897 0-2.821-1.416-4.897-4.139-4.897s-4.139 2.076-4.139 4.897c0 2.794 1.416 4.897 4.139 4.897z"></path>
<path fill="#000" style="fill: var(--color4, #000)" d="M85.678 6.286v19.029h2.859v-4.924l1.933-1.783 4.384 6.707h3.431l-5.854-8.543 5.283-5.057h-3.513l-5.664 5.456v-10.885h-2.859z"></path>
</symbol>

<symbol id="icon-X-close" viewBox="0 0 32 32">
<title>X-close</title>
<path d="M7.626 6.245c-0.291 0.085-0.749 0.427-1.029 0.774-0.432 0.533-0.509 1.054-0.24 1.616 0.088 0.184 1.011 1.143 3.665 3.806l3.547 3.56-3.551 3.56c-3.907 3.918-3.806 3.799-3.805 4.44 0 0.449 0.157 0.77 0.586 1.199 0.429 0.43 0.75 0.586 1.199 0.586 0.634 0 0.526 0.093 4.44-3.808l3.56-3.547 3.56 3.547c3.914 3.901 3.806 3.808 4.44 3.808 0.449 0 0.77-0.157 1.199-0.586 0.43-0.429 0.586-0.75 0.586-1.199 0-0.634 0.093-0.526-3.808-4.44l-3.547-3.56 3.547-3.56c3.901-3.914 3.808-3.806 3.808-4.44 0-0.449-0.157-0.77-0.586-1.199-0.429-0.43-0.75-0.586-1.199-0.586-0.634 0-0.526-0.093-4.44 3.808l-3.56 3.547-3.56-3.547c-2.721-2.712-3.619-3.576-3.814-3.67-0.29-0.138-0.728-0.186-1-0.109z"></path>
</symbol>

</defs>
</svg>
